<svg xmlns="http://www.w3.org/2000/svg" width="165.91" height="35" viewBox="0 0 165.91 35"><rect class="svg__rect" x="0" y="0" width="66.39" height="35" fill="#C1D72F"/><rect class="svg__rect" x="64.39" y="0" width="101.52" height="35" fill="#5D9741"/><path class="svg__text" d="M16.67 22L14.22 22L14.22 13.47L16.74 13.47Q17.87 13.47 18.74 13.97Q19.62 14.48 20.10 15.40Q20.58 16.33 20.58 17.52L20.58 17.52L20.58 17.95Q20.58 19.16 20.10 20.08Q19.61 21.00 18.72 21.50Q17.83 22 16.67 22L16.67 22ZM15.70 14.66L15.70 20.82L16.67 20.82Q17.83 20.82 18.46 20.09Q19.08 19.36 19.09 17.99L19.09 17.99L19.09 17.52Q19.09 16.13 18.49 15.40Q17.89 14.66 16.74 14.66L16.74 14.66L15.70 14.66ZM25.82 22L24.28 22L27.51 13.47L28.84 13.47L32.06 22L30.52 22L29.82 20.01L26.52 20.01L25.82 22ZM28.17 15.28L26.93 18.82L29.40 18.82L28.17 15.28ZM37.70 14.66L35.06 14.66L35.06 13.47L41.83 13.47L41.83 14.66L39.17 14.66L39.17 22L37.70 22L37.70 14.66ZM46.37 22L44.83 22L48.05 13.47L49.38 13.47L52.61 22L51.06 22L50.36 20.01L47.06 20.01L46.37 22ZM48.71 15.28L47.48 18.82L49.95 18.82L48.71 15.28Z" fill="#FFFFFF"/><path class="svg__text" d="M77.99 21.24L77.99 21.24L78.77 19.49Q79.33 19.86 80.08 20.09Q80.82 20.32 81.54 20.32L81.54 20.32Q82.91 20.32 82.91 19.64L82.91 19.64Q82.91 19.28 82.52 19.11Q82.13 18.93 81.27 18.74L81.27 18.74Q80.32 18.53 79.68 18.30Q79.05 18.06 78.59 17.55Q78.14 17.03 78.14 16.16L78.14 16.16Q78.14 15.39 78.56 14.77Q78.98 14.15 79.81 13.79Q80.65 13.43 81.85 13.43L81.85 13.43Q82.68 13.43 83.49 13.62Q84.29 13.80 84.91 14.17L84.91 14.17L84.17 15.93Q82.97 15.28 81.84 15.28L81.84 15.28Q81.13 15.28 80.81 15.49Q80.49 15.70 80.49 16.04L80.49 16.04Q80.49 16.37 80.87 16.54Q81.26 16.71 82.11 16.89L82.11 16.89Q83.07 17.10 83.70 17.33Q84.33 17.56 84.79 18.07Q85.25 18.58 85.25 19.46L85.25 19.46Q85.25 20.21 84.83 20.83Q84.41 21.44 83.57 21.80Q82.73 22.17 81.53 22.17L81.53 22.17Q80.51 22.17 79.55 21.92Q78.59 21.67 77.99 21.24ZM89.40 17.80L89.40 17.80Q89.40 16.54 90.00 15.54Q90.60 14.55 91.65 13.99Q92.70 13.43 94.02 13.43L94.02 13.43Q95.17 13.43 96.09 13.84Q97.02 14.25 97.63 15.02L97.63 15.02L96.12 16.39Q95.31 15.40 94.14 15.40L94.14 15.40Q93.45 15.40 92.92 15.70Q92.39 16 92.09 16.54Q91.80 17.09 91.80 17.80L91.80 17.80Q91.80 18.51 92.09 19.05Q92.39 19.60 92.92 19.90Q93.45 20.20 94.14 20.20L94.14 20.20Q95.31 20.20 96.12 19.22L96.12 19.22L97.63 20.58Q97.02 21.35 96.10 21.76Q95.17 22.17 94.02 22.17L94.02 22.17Q92.70 22.17 91.65 21.61Q90.60 21.05 90.00 20.05Q89.40 19.06 89.40 17.80ZM104.55 22L102.17 22L102.17 13.60L104.55 13.60L104.55 22ZM116.46 22L109.72 22L109.72 13.60L116.31 13.60L116.31 15.44L112.08 15.44L112.08 16.85L115.81 16.85L115.81 18.63L112.08 18.63L112.08 20.17L116.46 20.17L116.46 22ZM123.60 22L121.27 22L121.27 13.60L123.23 13.60L126.94 18.07L126.94 13.60L129.26 13.60L129.26 22L127.31 22L123.60 17.52L123.60 22ZM134.00 17.80L134.00 17.80Q134.00 16.54 134.59 15.54Q135.19 14.55 136.24 13.99Q137.29 13.43 138.61 13.43L138.61 13.43Q139.77 13.43 140.69 13.84Q141.61 14.25 142.23 15.02L142.23 15.02L140.72 16.39Q139.90 15.40 138.74 15.40L138.74 15.40Q138.05 15.40 137.52 15.70Q136.98 16 136.69 16.54Q136.39 17.09 136.39 17.80L136.39 17.80Q136.39 18.51 136.69 19.05Q136.98 19.60 137.52 19.90Q138.05 20.20 138.74 20.20L138.74 20.20Q139.90 20.20 140.72 19.22L140.72 19.22L142.23 20.58Q141.62 21.35 140.69 21.76Q139.77 22.17 138.61 22.17L138.61 22.17Q137.29 22.17 136.24 21.61Q135.19 21.05 134.59 20.05Q134.00 19.06 134.00 17.80ZM153.51 22L146.76 22L146.76 13.60L153.36 13.60L153.36 15.44L149.12 15.44L149.12 16.85L152.85 16.85L152.85 18.63L149.12 18.63L149.12 20.17L153.51 20.17L153.51 22Z" fill="#FFFFFF" x="77.39"/></svg>