<svg xmlns="http://www.w3.org/2000/svg" width="205.55" height="35" viewBox="0 0 205.55 35"><rect class="svg__rect" x="0" y="0" width="66.39" height="35" fill="#31C4F3"/><rect class="svg__rect" x="64.39" y="0" width="141.16000000000003" height="35" fill="#389AD5"/><path class="svg__text" d="M16.67 22L14.22 22L14.22 13.47L16.74 13.47Q17.87 13.47 18.74 13.97Q19.62 14.48 20.10 15.40Q20.58 16.33 20.58 17.52L20.58 17.52L20.58 17.95Q20.58 19.16 20.10 20.08Q19.61 21.00 18.72 21.50Q17.83 22 16.67 22L16.67 22ZM15.70 14.66L15.70 20.82L16.67 20.82Q17.83 20.82 18.46 20.09Q19.08 19.36 19.09 17.99L19.09 17.99L19.09 17.52Q19.09 16.13 18.49 15.40Q17.89 14.66 16.74 14.66L16.74 14.66L15.70 14.66ZM25.82 22L24.28 22L27.51 13.47L28.84 13.47L32.06 22L30.52 22L29.82 20.01L26.52 20.01L25.82 22ZM28.17 15.28L26.93 18.82L29.40 18.82L28.17 15.28ZM37.70 14.66L35.06 14.66L35.06 13.47L41.83 13.47L41.83 14.66L39.17 14.66L39.17 22L37.70 22L37.70 14.66ZM46.37 22L44.83 22L48.05 13.47L49.38 13.47L52.61 22L51.06 22L50.36 20.01L47.06 20.01L46.37 22ZM48.71 15.28L47.48 18.82L49.95 18.82L48.71 15.28Z" fill="#FFFFFF"/><path class="svg__text" d="M77.99 21.24L77.99 21.24L78.77 19.49Q79.33 19.86 80.08 20.09Q80.82 20.32 81.54 20.32L81.54 20.32Q82.91 20.32 82.91 19.64L82.91 19.64Q82.91 19.28 82.52 19.11Q82.13 18.93 81.27 18.74L81.27 18.74Q80.32 18.53 79.68 18.30Q79.05 18.06 78.59 17.55Q78.14 17.03 78.14 16.16L78.14 16.16Q78.14 15.39 78.56 14.77Q78.98 14.15 79.81 13.79Q80.65 13.43 81.85 13.43L81.85 13.43Q82.68 13.43 83.49 13.62Q84.29 13.80 84.91 14.17L84.91 14.17L84.17 15.93Q82.97 15.28 81.84 15.28L81.84 15.28Q81.13 15.28 80.81 15.49Q80.49 15.70 80.49 16.04L80.49 16.04Q80.49 16.37 80.87 16.54Q81.26 16.71 82.11 16.89L82.11 16.89Q83.07 17.10 83.70 17.33Q84.33 17.56 84.79 18.07Q85.25 18.58 85.25 19.46L85.25 19.46Q85.25 20.21 84.83 20.83Q84.41 21.44 83.57 21.80Q82.73 22.17 81.53 22.17L81.53 22.17Q80.51 22.17 79.55 21.92Q78.59 21.67 77.99 21.24ZM91.62 15.48L89.04 15.48L89.04 13.60L96.56 13.60L96.56 15.48L93.99 15.48L93.99 22L91.62 22L91.62 15.48ZM103.31 22L100.93 22L100.93 13.60L104.78 13.60Q105.92 13.60 106.76 13.98Q107.59 14.35 108.05 15.06Q108.51 15.76 108.51 16.71L108.51 16.71Q108.51 17.62 108.08 18.30Q107.65 18.98 106.86 19.36L106.86 19.36L108.67 22L106.13 22L104.61 19.77L103.31 19.77L103.31 22ZM103.31 15.47L103.31 17.93L104.63 17.93Q105.36 17.93 105.73 17.61Q106.11 17.29 106.11 16.71L106.11 16.71Q106.11 16.12 105.73 15.79Q105.36 15.47 104.63 15.47L104.63 15.47L103.31 15.47ZM113.22 18.26L113.22 18.26L113.22 13.60L115.60 13.60L115.60 18.19Q115.60 20.20 117.20 20.20L117.20 20.20Q118.78 20.20 118.78 18.19L118.78 18.19L118.78 13.60L121.12 13.60L121.12 18.26Q121.12 20.13 120.08 21.15Q119.04 22.17 117.17 22.17L117.17 22.17Q115.30 22.17 114.26 21.15Q113.22 20.13 113.22 18.26ZM125.78 17.80L125.78 17.80Q125.78 16.54 126.38 15.54Q126.98 14.55 128.03 13.99Q129.08 13.43 130.40 13.43L130.40 13.43Q131.55 13.43 132.48 13.84Q133.40 14.25 134.01 15.02L134.01 15.02L132.50 16.39Q131.69 15.40 130.52 15.40L130.52 15.40Q129.84 15.40 129.30 15.70Q128.77 16 128.47 16.54Q128.18 17.09 128.18 17.80L128.18 17.80Q128.18 18.51 128.47 19.05Q128.77 19.60 129.30 19.90Q129.84 20.20 130.52 20.20L130.52 20.20Q131.69 20.20 132.50 19.22L132.50 19.22L134.01 20.58Q133.40 21.35 132.48 21.76Q131.55 22.17 130.40 22.17L130.40 22.17Q129.08 22.17 128.03 21.61Q126.98 21.05 126.38 20.05Q125.78 19.06 125.78 17.80ZM140.34 15.48L137.76 15.48L137.76 13.60L145.28 13.60L145.28 15.48L142.71 15.48L142.71 22L140.34 22L140.34 15.48ZM149.58 18.26L149.58 18.26L149.58 13.60L151.96 13.60L151.96 18.19Q151.96 20.20 153.55 20.20L153.55 20.20Q155.14 20.20 155.14 18.19L155.14 18.19L155.14 13.60L157.48 13.60L157.48 18.26Q157.48 20.13 156.44 21.15Q155.40 22.17 153.53 22.17L153.53 22.17Q151.66 22.17 150.62 21.15Q149.58 20.13 149.58 18.26ZM164.95 22L162.57 22L162.57 13.60L166.41 13.60Q167.55 13.60 168.39 13.98Q169.23 14.35 169.69 15.06Q170.14 15.76 170.14 16.71L170.14 16.71Q170.14 17.62 169.71 18.30Q169.29 18.98 168.50 19.36L168.50 19.36L170.31 22L167.76 22L166.24 19.77L164.95 19.77L164.95 22ZM164.95 15.47L164.95 17.93L166.26 17.93Q167.00 17.93 167.37 17.61Q167.74 17.29 167.74 16.71L167.74 16.71Q167.74 16.12 167.37 15.79Q167.00 15.47 166.26 15.47L166.26 15.47L164.95 15.47ZM181.67 22L174.93 22L174.93 13.60L181.52 13.60L181.52 15.44L177.28 15.44L177.28 16.85L181.02 16.85L181.02 18.63L177.28 18.63L177.28 20.17L181.67 20.17L181.67 22ZM185.89 21.24L185.89 21.24L186.67 19.49Q187.23 19.86 187.98 20.09Q188.72 20.32 189.44 20.32L189.44 20.32Q190.81 20.32 190.81 19.64L190.81 19.64Q190.81 19.28 190.42 19.11Q190.03 18.93 189.17 18.74L189.17 18.74Q188.22 18.53 187.58 18.30Q186.95 18.06 186.49 17.55Q186.04 17.03 186.04 16.16L186.04 16.16Q186.04 15.39 186.46 14.77Q186.88 14.15 187.71 13.79Q188.55 13.43 189.75 13.43L189.75 13.43Q190.58 13.43 191.39 13.62Q192.19 13.80 192.81 14.17L192.81 14.17L192.07 15.93Q190.87 15.28 189.74 15.28L189.74 15.28Q189.03 15.28 188.71 15.49Q188.39 15.70 188.39 16.04L188.39 16.04Q188.39 16.37 188.77 16.54Q189.16 16.71 190.01 16.89L190.01 16.89Q190.97 17.10 191.60 17.33Q192.23 17.56 192.69 18.07Q193.15 18.58 193.15 19.46L193.15 19.46Q193.15 20.21 192.73 20.83Q192.31 21.44 191.47 21.80Q190.63 22.17 189.43 22.17L189.43 22.17Q188.41 22.17 187.45 21.92Q186.49 21.67 185.89 21.24Z" fill="#FFFFFF" x="77.39"/></svg>