<svg xmlns="http://www.w3.org/2000/svg" width="299.18" height="35" viewBox="0 0 299.18 35"><rect class="svg__rect" x="0" y="0" width="150.64000000000001" height="35" fill="#C1D72F"/><rect class="svg__rect" x="148.64000000000001" y="0" width="150.54" height="35" fill="#5D9741"/><path class="svg__text" d="M19.57 22L14.22 22L14.22 13.47L15.70 13.47L15.70 20.82L19.57 20.82L19.57 22ZM29.28 22L23.70 22L23.70 13.47L29.23 13.47L29.23 14.66L25.18 14.66L25.18 17.02L28.68 17.02L28.68 18.19L25.18 18.19L25.18 20.82L29.28 20.82L29.28 22ZM34.25 22L32.71 22L35.93 13.47L37.26 13.47L40.49 22L38.94 22L38.25 20.01L34.94 20.01L34.25 22ZM36.59 15.28L35.36 18.82L37.83 18.82L36.59 15.28ZM45.93 22L44.45 22L44.45 13.47L45.93 13.47L49.74 19.54L49.74 13.47L51.21 13.47L51.21 22L49.73 22L45.93 15.95L45.93 22ZM61.50 19.42L61.50 19.42L62.98 19.42Q62.98 20.15 63.46 20.55Q63.94 20.95 64.84 20.95L64.84 20.95Q65.61 20.95 66.00 20.63Q66.39 20.32 66.39 19.80L66.39 19.80Q66.39 19.24 65.99 18.94Q65.60 18.63 64.57 18.32Q63.54 18.01 62.93 17.63L62.93 17.63Q61.76 16.90 61.76 15.72L61.76 15.72Q61.76 14.69 62.60 14.02Q63.44 13.35 64.78 13.35L64.78 13.35Q65.67 13.35 66.37 13.68Q67.07 14.01 67.47 14.61Q67.87 15.22 67.87 15.96L67.87 15.96L66.39 15.96Q66.39 15.29 65.97 14.91Q65.55 14.54 64.77 14.54L64.77 14.54Q64.05 14.54 63.64 14.85Q63.24 15.16 63.24 15.71L63.24 15.71Q63.24 16.18 63.68 16.50Q64.11 16.81 65.11 17.10Q66.10 17.40 66.71 17.78Q67.31 18.16 67.59 18.65Q67.87 19.13 67.87 19.79L67.87 19.79Q67.87 20.86 67.05 21.49Q66.24 22.12 64.84 22.12L64.84 22.12Q63.91 22.12 63.13 21.77Q62.36 21.43 61.93 20.83Q61.50 20.22 61.50 19.42ZM73.84 14.66L71.21 14.66L71.21 13.47L77.97 13.47L77.97 14.66L75.31 14.66L75.31 22L73.84 22L73.84 14.66ZM82.51 22L80.97 22L84.19 13.47L85.52 13.47L88.75 22L87.20 22L86.50 20.01L83.20 20.01L82.51 22ZM84.85 15.28L83.62 18.82L86.09 18.82L84.85 15.28ZM94.19 22L92.70 22L92.70 13.47L95.70 13.47Q97.18 13.47 97.98 14.13Q98.79 14.79 98.79 16.05L98.79 16.05Q98.79 16.90 98.37 17.48Q97.96 18.06 97.22 18.37L97.22 18.37L99.14 21.92L99.14 22L97.55 22L95.84 18.71L94.19 18.71L94.19 22ZM94.19 14.66L94.19 17.52L95.71 17.52Q96.46 17.52 96.88 17.15Q97.30 16.77 97.30 16.11L97.30 16.11Q97.30 15.43 96.91 15.05Q96.52 14.68 95.75 14.66L95.75 14.66L94.19 14.66ZM104.86 14.66L102.22 14.66L102.22 13.47L108.99 13.47L108.99 14.66L106.33 14.66L106.33 22L104.86 22L104.86 14.66ZM115.37 18.95L112.30 18.95L112.30 17.80L115.37 17.80L115.37 18.95ZM119.54 19.16L119.54 19.16L119.54 13.47L121.02 13.47L121.02 19.18Q121.02 20.03 121.45 20.48Q121.88 20.93 122.73 20.93L122.73 20.93Q124.44 20.93 124.44 19.13L124.44 19.13L124.44 13.47L125.91 13.47L125.91 19.17Q125.91 20.53 125.04 21.32Q124.17 22.12 122.73 22.12L122.73 22.12Q121.26 22.12 120.40 21.33Q119.54 20.55 119.54 19.16ZM131.97 22L130.48 22L130.48 13.47L133.75 13.47Q135.18 13.47 136.02 14.21Q136.86 14.96 136.86 16.18L136.86 16.18Q136.86 17.44 136.04 18.13Q135.21 18.83 133.73 18.83L133.73 18.83L131.97 18.83L131.97 22ZM131.97 14.66L131.97 17.64L133.75 17.64Q134.54 17.64 134.96 17.27Q135.37 16.90 135.37 16.19L135.37 16.19Q135.37 15.50 134.95 15.09Q134.53 14.68 133.79 14.66L133.79 14.66L131.97 14.66Z" fill="#FFFFFF"/><path class="svg__text" d="M165.03 22L162.83 22L162.83 13.60L164.78 13.60L167.74 18.45L170.62 13.60L172.57 13.60L172.60 22L170.42 22L170.39 17.55L168.23 21.17L167.18 21.17L165.03 17.67L165.03 22ZM179.18 22L176.75 22L180.46 13.60L182.80 13.60L186.52 22L184.05 22L183.39 20.37L179.84 20.37L179.18 22ZM181.61 15.93L180.53 18.61L182.69 18.61L181.61 15.93ZM193.00 22L190.67 22L190.67 13.60L192.63 13.60L196.34 18.07L196.34 13.60L198.66 13.60L198.66 22L196.71 22L193.00 17.52L193.00 22ZM205.24 22L202.82 22L206.53 13.60L208.87 13.60L212.59 22L210.12 22L209.46 20.37L205.91 20.37L205.24 22ZM207.68 15.93L206.60 18.61L208.76 18.61L207.68 15.93ZM216.31 17.80L216.31 17.80Q216.31 16.54 216.91 15.54Q217.51 14.55 218.58 13.99Q219.65 13.43 220.99 13.43L220.99 13.43Q222.17 13.43 223.10 13.83Q224.04 14.22 224.66 14.97L224.66 14.97L223.15 16.33Q222.31 15.40 221.13 15.40L221.13 15.40Q221.12 15.40 221.11 15.40L221.11 15.40Q220.03 15.40 219.37 16.06Q218.71 16.71 218.71 17.80L218.71 17.80Q218.71 18.50 219.01 19.04Q219.31 19.59 219.85 19.89Q220.39 20.20 221.09 20.20L221.09 20.20Q221.77 20.20 222.37 19.93L222.37 19.93L222.37 17.62L224.47 17.62L224.47 21.10Q223.75 21.61 222.81 21.89Q221.88 22.17 220.94 22.17L220.94 22.17Q219.62 22.17 218.57 21.61Q217.51 21.05 216.91 20.05Q216.31 19.06 216.31 17.80ZM236.20 22L229.46 22L229.46 13.60L236.05 13.60L236.05 15.44L231.82 15.44L231.82 16.85L235.55 16.85L235.55 18.63L231.82 18.63L231.82 20.17L236.20 20.17L236.20 22ZM243.21 22L241.01 22L241.01 13.60L242.97 13.60L245.92 18.45L248.80 13.60L250.75 13.60L250.78 22L248.60 22L248.57 17.55L246.41 21.17L245.36 21.17L243.21 17.67L243.21 22ZM262.68 22L255.94 22L255.94 13.60L262.53 13.60L262.53 15.44L258.29 15.44L258.29 16.85L262.03 16.85L262.03 18.63L258.29 18.63L258.29 20.17L262.68 20.17L262.68 22ZM269.82 22L267.49 22L267.49 13.60L269.45 13.60L273.15 18.07L273.15 13.60L275.48 13.60L275.48 22L273.53 22L269.82 17.52L269.82 22ZM282.44 15.48L279.85 15.48L279.85 13.60L287.37 13.60L287.37 15.48L284.81 15.48L284.81 22L282.44 22L282.44 15.48Z" fill="#FFFFFF" x="161.64000000000001"/></svg>