<svg xmlns="http://www.w3.org/2000/svg" width="211.67000000000002" height="35" viewBox="0 0 211.67000000000002 35"><rect class="svg__rect" x="0" y="0" width="98.26" height="35" fill="#31C4F3"/><rect class="svg__rect" x="96.26" y="0" width="115.41000000000001" height="35" fill="#389AD5"/><path class="svg__text" d="M15.69 22L14.22 22L14.22 13.47L16.14 13.47L18.60 20.01L21.06 13.47L22.97 13.47L22.97 22L21.49 22L21.49 19.19L21.64 15.43L19.12 22L18.06 22L15.55 15.43L15.69 19.19L15.69 22ZM28.49 22L26.95 22L30.17 13.47L31.50 13.47L34.73 22L33.18 22L32.49 20.01L29.18 20.01L28.49 22ZM30.83 15.28L29.60 18.82L32.07 18.82L30.83 15.28ZM38.42 18.19L38.42 18.19L38.42 17.39Q38.42 16.19 38.84 15.27Q39.27 14.35 40.07 13.85Q40.87 13.35 41.92 13.35L41.92 13.35Q43.33 13.35 44.19 14.12Q45.06 14.89 45.20 16.29L45.20 16.29L43.72 16.29Q43.61 15.37 43.18 14.96Q42.75 14.55 41.92 14.55L41.92 14.55Q40.95 14.55 40.43 15.26Q39.92 15.96 39.90 17.33L39.90 17.33L39.90 18.09Q39.90 19.47 40.40 20.20Q40.89 20.92 41.85 20.92L41.85 20.92Q42.72 20.92 43.16 20.53Q43.60 20.14 43.72 19.22L43.72 19.22L45.20 19.22Q45.07 20.59 44.19 21.35Q43.31 22.12 41.85 22.12L41.85 22.12Q40.83 22.12 40.05 21.63Q39.28 21.15 38.86 20.26Q38.43 19.37 38.42 18.19ZM50.99 22L49.51 22L49.51 13.47L50.99 13.47L50.99 17.02L54.81 17.02L54.81 13.47L56.28 13.47L56.28 22L54.81 22L54.81 18.21L50.99 18.21L50.99 22ZM62.59 22L61.11 22L61.11 13.47L62.59 13.47L62.59 22ZM68.88 22L67.40 22L67.40 13.47L68.88 13.47L72.69 19.54L72.69 13.47L74.16 13.47L74.16 22L72.68 22L68.88 15.95L68.88 22ZM84.48 22L78.90 22L78.90 13.47L84.44 13.47L84.44 14.66L80.39 14.66L80.39 17.02L83.89 17.02L83.89 18.19L80.39 18.19L80.39 20.82L84.48 20.82L84.48 22Z" fill="#FFFFFF"/><path class="svg__text" d="M116.83 22L110.45 22L110.45 13.60L112.83 13.60L112.83 20.11L116.83 20.11L116.83 22ZM128.00 22L121.25 22L121.25 13.60L127.84 13.60L127.84 15.44L123.61 15.44L123.61 16.85L127.34 16.85L127.34 18.63L123.61 18.63L123.61 20.17L128.00 20.17L128.00 22ZM134.22 22L131.79 22L135.50 13.60L137.85 13.60L141.56 22L139.09 22L138.43 20.37L134.88 20.37L134.22 22ZM136.66 15.93L135.57 18.61L137.73 18.61L136.66 15.93ZM148.09 22L145.72 22L145.72 13.60L149.56 13.60Q150.70 13.60 151.54 13.98Q152.38 14.35 152.83 15.06Q153.29 15.76 153.29 16.71L153.29 16.71Q153.29 17.62 152.86 18.30Q152.44 18.98 151.65 19.36L151.65 19.36L153.46 22L150.91 22L149.39 19.77L148.09 19.77L148.09 22ZM148.09 15.47L148.09 17.93L149.41 17.93Q150.15 17.93 150.52 17.61Q150.89 17.29 150.89 16.71L150.89 16.71Q150.89 16.12 150.52 15.79Q150.15 15.47 149.41 15.47L149.41 15.47L148.09 15.47ZM160.41 22L158.08 22L158.08 13.60L160.04 13.60L163.74 18.07L163.74 13.60L166.07 13.60L166.07 22L164.12 22L160.41 17.52L160.41 22ZM173.61 22L171.23 22L171.23 13.60L173.61 13.60L173.61 22ZM181.12 22L178.79 22L178.79 13.60L180.74 13.60L184.45 18.07L184.45 13.60L186.78 13.60L186.78 22L184.83 22L181.12 17.52L181.12 22ZM191.51 17.80L191.51 17.80Q191.51 16.54 192.11 15.54Q192.71 14.55 193.78 13.99Q194.85 13.43 196.19 13.43L196.19 13.43Q197.37 13.43 198.30 13.83Q199.24 14.22 199.86 14.97L199.86 14.97L198.35 16.33Q197.51 15.40 196.33 15.40L196.33 15.40Q196.32 15.40 196.31 15.40L196.31 15.40Q195.23 15.40 194.57 16.06Q193.91 16.71 193.91 17.80L193.91 17.80Q193.91 18.50 194.21 19.04Q194.51 19.59 195.05 19.89Q195.59 20.20 196.29 20.20L196.29 20.20Q196.97 20.20 197.57 19.93L197.57 19.93L197.57 17.62L199.67 17.62L199.67 21.10Q198.95 21.61 198.01 21.89Q197.08 22.17 196.14 22.17L196.14 22.17Q194.82 22.17 193.77 21.61Q192.71 21.05 192.11 20.05Q191.51 19.06 191.51 17.80Z" fill="#FFFFFF" x="109.26"/></svg>