<svg xmlns="http://www.w3.org/2000/svg" width="205.35" height="35" viewBox="0 0 205.35 35"><rect class="svg__rect" x="0" y="0" width="106.33" height="35" fill="#000000"/><rect class="svg__rect" x="104.33" y="0" width="101.02" height="35" fill="#E46C17"/><path class="svg__text" d="M15.69 22L14.22 22L14.22 13.47L16.14 13.47L18.60 20.01L21.06 13.47L22.97 13.47L22.97 22L21.49 22L21.49 19.19L21.64 15.43L19.12 22L18.06 22L15.55 15.43L15.69 19.19L15.69 22ZM28.49 22L26.95 22L30.17 13.47L31.50 13.47L34.73 22L33.18 22L32.49 20.01L29.18 20.01L28.49 22ZM30.83 15.28L29.60 18.82L32.07 18.82L30.83 15.28ZM41.14 22L38.69 22L38.69 13.47L41.21 13.47Q42.34 13.47 43.21 13.97Q44.09 14.48 44.57 15.40Q45.05 16.33 45.05 17.52L45.05 17.52L45.05 17.95Q45.05 19.16 44.57 20.08Q44.08 21.00 43.19 21.50Q42.30 22 41.14 22L41.14 22ZM40.17 14.66L40.17 20.82L41.14 20.82Q42.30 20.82 42.93 20.09Q43.55 19.36 43.56 17.99L43.56 17.99L43.56 17.52Q43.56 16.13 42.96 15.40Q42.35 14.66 41.21 14.66L41.21 14.66L40.17 14.66ZM55.09 22L49.51 22L49.51 13.47L55.05 13.47L55.05 14.66L51.00 14.66L51.00 17.02L54.50 17.02L54.50 18.19L51.00 18.19L51.00 20.82L55.09 20.82L55.09 22ZM66.75 22L65.26 22L65.26 13.47L70.68 13.47L70.68 14.66L66.75 14.66L66.75 17.20L70.18 17.20L70.18 18.38L66.75 18.38L66.75 22ZM74.57 18.00L74.57 18.00L74.57 17.52Q74.57 16.28 75.02 15.32Q75.46 14.37 76.27 13.86Q77.07 13.35 78.11 13.35Q79.16 13.35 79.96 13.85Q80.77 14.35 81.21 15.29Q81.65 16.23 81.65 17.48L81.65 17.48L81.65 17.96Q81.65 19.21 81.22 20.16Q80.79 21.10 79.98 21.61Q79.17 22.12 78.13 22.12L78.13 22.12Q77.09 22.12 76.28 21.61Q75.47 21.10 75.02 20.17Q74.58 19.23 74.57 18.00ZM76.06 17.46L76.06 17.96Q76.06 19.36 76.60 20.13Q77.15 20.90 78.13 20.90L78.13 20.90Q79.11 20.90 79.64 20.15Q80.17 19.40 80.17 17.96L80.17 17.96L80.17 17.51Q80.17 16.09 79.63 15.34Q79.10 14.58 78.11 14.58L78.11 14.58Q77.15 14.58 76.61 15.33Q76.07 16.09 76.06 17.46L76.06 17.46ZM87.60 22L86.12 22L86.12 13.47L89.12 13.47Q90.59 13.47 91.40 14.13Q92.20 14.79 92.20 16.05L92.20 16.05Q92.20 16.90 91.79 17.48Q91.37 18.06 90.64 18.37L90.64 18.37L92.55 21.92L92.55 22L90.96 22L89.25 18.71L87.60 18.71L87.60 22ZM87.60 14.66L87.60 17.52L89.12 17.52Q89.87 17.52 90.30 17.15Q90.72 16.77 90.72 16.11L90.72 16.11Q90.72 15.43 90.33 15.05Q89.94 14.68 89.16 14.66L89.16 14.66L87.60 14.66Z" fill="#FFFFFF"/><path class="svg__text" d="M119.94 22L117.51 22L121.22 13.60L123.56 13.60L127.28 22L124.81 22L124.15 20.37L120.60 20.37L119.94 22ZM122.37 15.93L121.29 18.61L123.45 18.61L122.37 15.93ZM133.63 22L131.43 22L131.43 13.60L133.39 13.60L136.34 18.45L139.22 13.60L141.18 13.60L141.20 22L139.02 22L139.00 17.55L136.83 21.17L135.78 21.17L133.63 17.67L133.63 22ZM147.78 22L145.35 22L149.06 13.60L151.41 13.60L155.12 22L152.65 22L151.99 20.37L148.44 20.37L147.78 22ZM150.22 15.93L149.13 18.61L151.30 18.61L150.22 15.93ZM166.38 22L158.86 22L158.86 20.51L163.10 15.48L158.97 15.48L158.97 13.60L166.20 13.60L166.20 15.09L161.97 20.11L166.38 20.11L166.38 22ZM170.48 17.80L170.48 17.80Q170.48 16.55 171.08 15.55Q171.69 14.56 172.75 14.00Q173.81 13.43 175.14 13.43L175.14 13.43Q176.47 13.43 177.54 14.00Q178.60 14.56 179.21 15.55Q179.81 16.55 179.81 17.80L179.81 17.80Q179.81 19.05 179.21 20.04Q178.60 21.04 177.54 21.60Q176.48 22.17 175.14 22.17L175.14 22.17Q173.81 22.17 172.75 21.60Q171.69 21.04 171.08 20.04Q170.48 19.05 170.48 17.80ZM172.88 17.80L172.88 17.80Q172.88 18.51 173.18 19.05Q173.48 19.60 173.99 19.90Q174.51 20.20 175.14 20.20L175.14 20.20Q175.78 20.20 176.30 19.90Q176.81 19.60 177.11 19.05Q177.41 18.51 177.41 17.80L177.41 17.80Q177.41 17.09 177.11 16.54Q176.81 16 176.30 15.70Q175.78 15.40 175.14 15.40L175.14 15.40Q174.50 15.40 173.99 15.70Q173.48 16 173.18 16.54Q172.88 17.09 172.88 17.80ZM186.87 22L184.54 22L184.54 13.60L186.50 13.60L190.21 18.07L190.21 13.60L192.53 13.60L192.53 22L190.58 22L186.87 17.52L186.87 22Z" fill="#FFFFFF" x="117.33"/></svg>