<svg xmlns="http://www.w3.org/2000/svg" width="222.65" height="35" viewBox="0 0 222.65 35"><rect class="svg__rect" x="0" y="0" width="106.33" height="35" fill="#31C4F3"/><rect class="svg__rect" x="104.33" y="0" width="118.32000000000001" height="35" fill="#389AD5"/><path class="svg__text" d="M15.69 22L14.22 22L14.22 13.47L16.14 13.47L18.60 20.01L21.06 13.47L22.97 13.47L22.97 22L21.49 22L21.49 19.19L21.64 15.43L19.12 22L18.06 22L15.55 15.43L15.69 19.19L15.69 22ZM28.49 22L26.95 22L30.17 13.47L31.50 13.47L34.73 22L33.18 22L32.49 20.01L29.18 20.01L28.49 22ZM30.83 15.28L29.60 18.82L32.07 18.82L30.83 15.28ZM41.14 22L38.69 22L38.69 13.47L41.21 13.47Q42.34 13.47 43.21 13.97Q44.09 14.48 44.57 15.40Q45.05 16.33 45.05 17.52L45.05 17.52L45.05 17.95Q45.05 19.16 44.57 20.08Q44.08 21.00 43.19 21.50Q42.30 22 41.14 22L41.14 22ZM40.17 14.66L40.17 20.82L41.14 20.82Q42.30 20.82 42.93 20.09Q43.55 19.36 43.56 17.99L43.56 17.99L43.56 17.52Q43.56 16.13 42.96 15.40Q42.35 14.66 41.21 14.66L41.21 14.66L40.17 14.66ZM55.09 22L49.51 22L49.51 13.47L55.05 13.47L55.05 14.66L51.00 14.66L51.00 17.02L54.50 17.02L54.50 18.19L51.00 18.19L51.00 20.82L55.09 20.82L55.09 22ZM66.75 22L65.26 22L65.26 13.47L70.68 13.47L70.68 14.66L66.75 14.66L66.75 17.20L70.18 17.20L70.18 18.38L66.75 18.38L66.75 22ZM74.57 18.00L74.57 18.00L74.57 17.52Q74.57 16.28 75.02 15.32Q75.46 14.37 76.27 13.86Q77.07 13.35 78.11 13.35Q79.16 13.35 79.96 13.85Q80.77 14.35 81.21 15.29Q81.65 16.23 81.65 17.48L81.65 17.48L81.65 17.96Q81.65 19.21 81.22 20.16Q80.79 21.10 79.98 21.61Q79.17 22.12 78.13 22.12L78.13 22.12Q77.09 22.12 76.28 21.61Q75.47 21.10 75.02 20.17Q74.58 19.23 74.57 18.00ZM76.06 17.46L76.06 17.96Q76.06 19.36 76.60 20.13Q77.15 20.90 78.13 20.90L78.13 20.90Q79.11 20.90 79.64 20.15Q80.17 19.40 80.17 17.96L80.17 17.96L80.17 17.51Q80.17 16.09 79.63 15.34Q79.10 14.58 78.11 14.58L78.11 14.58Q77.15 14.58 76.61 15.33Q76.07 16.09 76.06 17.46L76.06 17.46ZM87.60 22L86.12 22L86.12 13.47L89.12 13.47Q90.59 13.47 91.40 14.13Q92.20 14.79 92.20 16.05L92.20 16.05Q92.20 16.90 91.79 17.48Q91.37 18.06 90.64 18.37L90.64 18.37L92.55 21.92L92.55 22L90.96 22L89.25 18.71L87.60 18.71L87.60 22ZM87.60 14.66L87.60 17.52L89.12 17.52Q89.87 17.52 90.30 17.15Q90.72 16.77 90.72 16.11L90.72 16.11Q90.72 15.43 90.33 15.05Q89.94 14.68 89.16 14.66L89.16 14.66L87.60 14.66Z" fill="#FFFFFF"/><path class="svg__text" d="M120.90 22L118.52 22L118.52 13.60L122.36 13.60Q123.50 13.60 124.34 13.98Q125.18 14.35 125.64 15.06Q126.09 15.76 126.09 16.71L126.09 16.71Q126.09 17.62 125.67 18.30Q125.24 18.98 124.45 19.36L124.45 19.36L126.26 22L123.72 22L122.19 19.77L120.90 19.77L120.90 22ZM120.90 15.47L120.90 17.93L122.22 17.93Q122.95 17.93 123.32 17.61Q123.69 17.29 123.69 16.71L123.69 16.71Q123.69 16.12 123.32 15.79Q122.95 15.47 122.22 15.47L122.22 15.47L120.90 15.47ZM137.63 22L130.88 22L130.88 13.60L137.47 13.60L137.47 15.44L133.24 15.44L133.24 16.85L136.97 16.85L136.97 18.63L133.24 18.63L133.24 20.17L137.63 20.17L137.63 22ZM141.84 21.24L141.84 21.24L142.62 19.49Q143.19 19.86 143.93 20.09Q144.67 20.32 145.39 20.32L145.39 20.32Q146.76 20.32 146.77 19.64L146.77 19.64Q146.77 19.28 146.38 19.11Q145.99 18.93 145.12 18.74L145.12 18.74Q144.17 18.53 143.53 18.30Q142.90 18.06 142.44 17.55Q141.99 17.03 141.99 16.16L141.99 16.16Q141.99 15.39 142.41 14.77Q142.83 14.15 143.66 13.79Q144.50 13.43 145.71 13.43L145.71 13.43Q146.53 13.43 147.34 13.62Q148.14 13.80 148.76 14.17L148.76 14.17L148.03 15.93Q146.82 15.28 145.69 15.28L145.69 15.28Q144.98 15.28 144.66 15.49Q144.34 15.70 144.34 16.04L144.34 16.04Q144.34 16.37 144.72 16.54Q145.11 16.71 145.96 16.89L145.96 16.89Q146.92 17.10 147.55 17.33Q148.18 17.56 148.64 18.07Q149.10 18.58 149.10 19.46L149.10 19.46Q149.10 20.21 148.68 20.83Q148.27 21.44 147.43 21.80Q146.58 22.17 145.38 22.17L145.38 22.17Q144.36 22.17 143.40 21.92Q142.44 21.67 141.84 21.24ZM160.42 22L153.68 22L153.68 13.60L160.27 13.60L160.27 15.44L156.04 15.44L156.04 16.85L159.77 16.85L159.77 18.63L156.04 18.63L156.04 20.17L160.42 20.17L160.42 22ZM166.65 22L164.22 22L167.93 13.60L170.27 13.60L173.99 22L171.52 22L170.86 20.37L167.31 20.37L166.65 22ZM169.08 15.93L168.00 18.61L170.16 18.61L169.08 15.93ZM180.52 22L178.14 22L178.14 13.60L181.99 13.60Q183.13 13.60 183.97 13.98Q184.80 14.35 185.26 15.06Q185.72 15.76 185.72 16.71L185.72 16.71Q185.72 17.62 185.29 18.30Q184.86 18.98 184.07 19.36L184.07 19.36L185.88 22L183.34 22L181.82 19.77L180.52 19.77L180.52 22ZM180.52 15.47L180.52 17.93L181.84 17.93Q182.57 17.93 182.94 17.61Q183.32 17.29 183.32 16.71L183.32 16.71Q183.32 16.12 182.94 15.79Q182.57 15.47 181.84 15.47L181.84 15.47L180.52 15.47ZM190.08 17.80L190.08 17.80Q190.08 16.54 190.68 15.54Q191.27 14.55 192.33 13.99Q193.38 13.43 194.70 13.43L194.70 13.43Q195.85 13.43 196.77 13.84Q197.70 14.25 198.31 15.02L198.31 15.02L196.80 16.39Q195.98 15.40 194.82 15.40L194.82 15.40Q194.13 15.40 193.60 15.70Q193.07 16 192.77 16.54Q192.47 17.09 192.47 17.80L192.47 17.80Q192.47 18.51 192.77 19.05Q193.07 19.60 193.60 19.90Q194.13 20.20 194.82 20.20L194.82 20.20Q195.98 20.20 196.80 19.22L196.80 19.22L198.31 20.58Q197.70 21.35 196.78 21.76Q195.85 22.17 194.70 22.17L194.70 22.17Q193.38 22.17 192.33 21.61Q191.27 21.05 190.68 20.05Q190.08 19.06 190.08 17.80ZM205.22 22L202.85 22L202.85 13.60L205.22 13.60L205.22 16.76L208.47 16.76L208.47 13.60L210.84 13.60L210.84 22L208.47 22L208.47 18.72L205.22 18.72L205.22 22Z" fill="#FFFFFF" x="117.33"/></svg>