<svg xmlns="http://www.w3.org/2000/svg" width="206.71999999999997" height="35" viewBox="0 0 206.71999999999997 35"><rect class="svg__rect" x="0" y="0" width="115.41" height="35" fill="#31C4F3"/><rect class="svg__rect" x="113.41" y="0" width="93.30999999999999" height="35" fill="#389AD5"/><path class="svg__text" d="M13.95 18.00L13.95 18.00L13.95 17.52Q13.95 16.28 14.39 15.32Q14.83 14.37 15.64 13.86Q16.44 13.35 17.49 13.35Q18.53 13.35 19.34 13.85Q20.14 14.35 20.58 15.29Q21.02 16.23 21.03 17.48L21.03 17.48L21.03 17.96Q21.03 19.21 20.59 20.16Q20.16 21.10 19.35 21.61Q18.55 22.12 17.50 22.12L17.50 22.12Q16.46 22.12 15.65 21.61Q14.84 21.10 14.40 20.17Q13.95 19.23 13.95 18.00ZM15.43 17.46L15.43 17.96Q15.43 19.36 15.98 20.13Q16.53 20.90 17.50 20.90L17.50 20.90Q18.48 20.90 19.01 20.15Q19.54 19.40 19.54 17.96L19.54 17.96L19.54 17.51Q19.54 16.09 19.01 15.34Q18.47 14.58 17.49 14.58L17.49 14.58Q16.53 14.58 15.98 15.33Q15.44 16.09 15.43 17.46L15.43 17.46ZM26.97 22L25.49 22L25.49 13.47L28.75 13.47Q30.18 13.47 31.02 14.21Q31.87 14.96 31.87 16.18L31.87 16.18Q31.87 17.44 31.04 18.13Q30.22 18.83 28.74 18.83L28.74 18.83L26.97 18.83L26.97 22ZM26.97 14.66L26.97 17.64L28.75 17.64Q29.55 17.64 29.96 17.27Q30.38 16.90 30.38 16.19L30.38 16.19Q30.38 15.50 29.96 15.09Q29.53 14.68 28.80 14.66L28.80 14.66L26.97 14.66ZM41.73 22L36.15 22L36.15 13.47L41.69 13.47L41.69 14.66L37.63 14.66L37.63 17.02L41.14 17.02L41.14 18.19L37.63 18.19L37.63 20.82L41.73 20.82L41.73 22ZM47.40 22L45.92 22L45.92 13.47L48.92 13.47Q50.40 13.47 51.20 14.13Q52.00 14.79 52.00 16.05L52.00 16.05Q52.00 16.90 51.59 17.48Q51.18 18.06 50.44 18.37L50.44 18.37L52.36 21.92L52.36 22L50.77 22L49.06 18.71L47.40 18.71L47.40 22ZM47.40 14.66L47.40 17.52L48.93 17.52Q49.68 17.52 50.10 17.15Q50.52 16.77 50.52 16.11L50.52 16.11Q50.52 15.43 50.13 15.05Q49.74 14.68 48.97 14.66L48.97 14.66L47.40 14.66ZM57.18 22L55.64 22L58.86 13.47L60.19 13.47L63.42 22L61.87 22L61.17 20.01L57.87 20.01L57.18 22ZM59.52 15.28L58.29 18.82L60.76 18.82L59.52 15.28ZM69.06 14.66L66.42 14.66L66.42 13.47L73.19 13.47L73.19 14.66L70.53 14.66L70.53 22L69.06 22L69.06 14.66ZM78.51 22L77.03 22L77.03 13.47L78.51 13.47L78.51 22ZM84.80 22L83.32 22L83.32 13.47L84.80 13.47L88.61 19.54L88.61 13.47L90.08 13.47L90.08 22L88.60 22L84.80 15.95L84.80 22ZM94.58 18.13L94.58 18.13L94.58 17.46Q94.58 15.53 95.50 14.44Q96.43 13.35 98.09 13.35L98.09 13.35Q99.51 13.35 100.35 14.05Q101.19 14.76 101.36 16.08L101.36 16.08L99.90 16.08Q99.66 14.54 98.12 14.54L98.12 14.54Q97.12 14.54 96.60 15.26Q96.08 15.98 96.07 17.37L96.07 17.37L96.07 18.02Q96.07 19.40 96.65 20.17Q97.23 20.93 98.27 20.93L98.27 20.93Q99.41 20.93 99.89 20.42L99.89 20.42L99.89 18.75L98.13 18.75L98.13 17.62L101.36 17.62L101.36 20.89Q100.90 21.50 100.08 21.81Q99.26 22.12 98.22 22.12L98.22 22.12Q97.14 22.12 96.32 21.63Q95.49 21.14 95.04 20.24Q94.60 19.33 94.58 18.13Z" fill="#FFFFFF"/><path class="svg__text" d="M127.01 21.24L127.01 21.24L127.79 19.49Q128.35 19.86 129.10 20.09Q129.84 20.32 130.56 20.32L130.56 20.32Q131.93 20.32 131.93 19.64L131.93 19.64Q131.93 19.28 131.54 19.11Q131.15 18.93 130.29 18.74L130.29 18.74Q129.34 18.53 128.70 18.30Q128.07 18.06 127.61 17.55Q127.16 17.03 127.16 16.16L127.16 16.16Q127.16 15.39 127.58 14.77Q128.00 14.15 128.83 13.79Q129.67 13.43 130.87 13.43L130.87 13.43Q131.70 13.43 132.51 13.62Q133.31 13.80 133.93 14.17L133.93 14.17L133.19 15.93Q131.99 15.28 130.86 15.28L130.86 15.28Q130.15 15.28 129.83 15.49Q129.51 15.70 129.51 16.04L129.51 16.04Q129.51 16.37 129.89 16.54Q130.28 16.71 131.13 16.89L131.13 16.89Q132.09 17.10 132.72 17.33Q133.35 17.56 133.81 18.07Q134.27 18.58 134.27 19.46L134.27 19.46Q134.27 20.21 133.85 20.83Q133.43 21.44 132.59 21.80Q131.75 22.17 130.55 22.17L130.55 22.17Q129.53 22.17 128.57 21.92Q127.61 21.67 127.01 21.24ZM140.97 18.95L137.77 13.60L140.28 13.60L142.27 16.94L144.26 13.60L146.56 13.60L143.35 18.99L143.35 22L140.97 22L140.97 18.95ZM150.06 21.24L150.06 21.24L150.84 19.49Q151.40 19.86 152.15 20.09Q152.89 20.32 153.61 20.32L153.61 20.32Q154.98 20.32 154.98 19.64L154.98 19.64Q154.98 19.28 154.59 19.11Q154.21 18.93 153.34 18.74L153.34 18.74Q152.39 18.53 151.75 18.30Q151.12 18.06 150.66 17.55Q150.21 17.03 150.21 16.16L150.21 16.16Q150.21 15.39 150.63 14.77Q151.05 14.15 151.88 13.79Q152.72 13.43 153.92 13.43L153.92 13.43Q154.75 13.43 155.56 13.62Q156.36 13.80 156.98 14.17L156.98 14.17L156.24 15.93Q155.04 15.28 153.91 15.28L153.91 15.28Q153.20 15.28 152.88 15.49Q152.56 15.70 152.56 16.04L152.56 16.04Q152.56 16.37 152.94 16.54Q153.33 16.71 154.18 16.89L154.18 16.89Q155.14 17.10 155.77 17.33Q156.40 17.56 156.86 18.07Q157.32 18.58 157.32 19.46L157.32 19.46Q157.32 20.21 156.90 20.83Q156.48 21.44 155.64 21.80Q154.80 22.17 153.60 22.17L153.60 22.17Q152.58 22.17 151.62 21.92Q150.66 21.67 150.06 21.24ZM163.69 15.48L161.11 15.48L161.11 13.60L168.63 13.60L168.63 15.48L166.06 15.48L166.06 22L163.69 22L163.69 15.48ZM179.75 22L173.00 22L173.00 13.60L179.59 13.60L179.59 15.44L175.36 15.44L175.36 16.85L179.09 16.85L179.09 18.63L175.36 18.63L175.36 20.17L179.75 20.17L179.75 22ZM186.75 22L184.55 22L184.55 13.60L186.51 13.60L189.46 18.45L192.34 13.60L194.30 13.60L194.32 22L192.14 22L192.12 17.55L189.95 21.17L188.90 21.17L186.75 17.67L186.75 22Z" fill="#FFFFFF" x="126.41"/></svg>