<svg xmlns="http://www.w3.org/2000/svg" width="162.49" height="35" viewBox="0 0 162.49 35"><rect class="svg__rect" x="0" y="0" width="64.89" height="35" fill="#31C4F3"/><rect class="svg__rect" x="62.89" y="0" width="99.6" height="35" fill="#389AD5"/><path class="svg__text" d="M14.08 19.16L14.08 19.16L14.08 13.47L15.56 13.47L15.56 19.18Q15.56 20.03 15.99 20.48Q16.43 20.93 17.27 20.93L17.27 20.93Q18.98 20.93 18.98 19.13L18.98 19.13L18.98 13.47L20.46 13.47L20.46 19.17Q20.46 20.53 19.59 21.32Q18.72 22.12 17.27 22.12L17.27 22.12Q15.81 22.12 14.94 21.33Q14.08 20.55 14.08 19.16ZM24.59 19.42L24.59 19.42L26.08 19.42Q26.08 20.15 26.56 20.55Q27.04 20.95 27.93 20.95L27.93 20.95Q28.71 20.95 29.10 20.63Q29.49 20.32 29.49 19.80L29.49 19.80Q29.49 19.24 29.09 18.94Q28.70 18.63 27.66 18.32Q26.63 18.01 26.02 17.63L26.02 17.63Q24.86 16.90 24.86 15.72L24.86 15.72Q24.86 14.69 25.70 14.02Q26.54 13.35 27.88 13.35L27.88 13.35Q28.77 13.35 29.47 13.68Q30.17 14.01 30.56 14.61Q30.96 15.22 30.96 15.96L30.96 15.96L29.49 15.96Q29.49 15.29 29.07 14.91Q28.65 14.54 27.87 14.54L27.87 14.54Q27.14 14.54 26.74 14.85Q26.34 15.16 26.34 15.71L26.34 15.71Q26.34 16.18 26.77 16.50Q27.21 16.81 28.20 17.10Q29.20 17.40 29.80 17.78Q30.41 18.16 30.69 18.65Q30.97 19.13 30.97 19.79L30.97 19.79Q30.97 20.86 30.15 21.49Q29.33 22.12 27.93 22.12L27.93 22.12Q27.01 22.12 26.23 21.77Q25.46 21.43 25.02 20.83Q24.59 20.22 24.59 19.42ZM40.84 22L35.26 22L35.26 13.47L40.80 13.47L40.80 14.66L36.74 14.66L36.74 17.02L40.24 17.02L40.24 18.19L36.74 18.19L36.74 20.82L40.84 20.82L40.84 22ZM44.60 19.42L44.60 19.42L46.08 19.42Q46.08 20.15 46.56 20.55Q47.04 20.95 47.94 20.95L47.94 20.95Q48.71 20.95 49.10 20.63Q49.49 20.32 49.49 19.80L49.49 19.80Q49.49 19.24 49.10 18.94Q48.70 18.63 47.67 18.32Q46.64 18.01 46.03 17.63L46.03 17.63Q44.86 16.90 44.86 15.72L44.86 15.72Q44.86 14.69 45.70 14.02Q46.54 13.35 47.89 13.35L47.89 13.35Q48.78 13.35 49.47 13.68Q50.17 14.01 50.57 14.61Q50.97 15.22 50.97 15.96L50.97 15.96L49.49 15.96Q49.49 15.29 49.07 14.91Q48.65 14.54 47.87 14.54L47.87 14.54Q47.15 14.54 46.75 14.85Q46.34 15.16 46.34 15.71L46.34 15.71Q46.34 16.18 46.78 16.50Q47.21 16.81 48.21 17.10Q49.20 17.40 49.81 17.78Q50.41 18.16 50.69 18.65Q50.97 19.13 50.97 19.79L50.97 19.79Q50.97 20.86 50.16 21.49Q49.34 22.12 47.94 22.12L47.94 22.12Q47.01 22.12 46.24 21.77Q45.46 21.43 45.03 20.83Q44.60 20.22 44.60 19.42Z" fill="#FFFFFF"/><path class="svg__text" d="M76.65 17.80L76.65 17.80Q76.65 16.55 77.25 15.55Q77.86 14.56 78.92 14.00Q79.98 13.43 81.31 13.43L81.31 13.43Q82.64 13.43 83.71 14.00Q84.77 14.56 85.38 15.55Q85.98 16.55 85.98 17.80L85.98 17.80Q85.98 19.05 85.38 20.04Q84.77 21.04 83.71 21.60Q82.65 22.17 81.31 22.17L81.31 22.17Q79.98 22.17 78.92 21.60Q77.86 21.04 77.25 20.04Q76.65 19.05 76.65 17.80ZM79.05 17.80L79.05 17.80Q79.05 18.51 79.35 19.05Q79.65 19.60 80.17 19.90Q80.68 20.20 81.31 20.20L81.31 20.20Q81.95 20.20 82.47 19.90Q82.98 19.60 83.28 19.05Q83.58 18.51 83.58 17.80L83.58 17.80Q83.58 17.09 83.28 16.54Q82.98 16 82.47 15.70Q81.95 15.40 81.31 15.40L81.31 15.40Q80.68 15.40 80.16 15.70Q79.65 16 79.35 16.54Q79.05 17.09 79.05 17.80ZM93.09 22L90.71 22L90.71 13.60L94.56 13.60Q95.69 13.60 96.53 13.98Q97.37 14.35 97.83 15.06Q98.29 15.76 98.29 16.71L98.29 16.71Q98.29 17.66 97.83 18.35Q97.37 19.05 96.53 19.42Q95.69 19.80 94.56 19.80L94.56 19.80L93.09 19.80L93.09 22ZM93.09 15.47L93.09 17.93L94.41 17.93Q95.14 17.93 95.51 17.61Q95.89 17.29 95.89 16.71L95.89 16.71Q95.89 16.12 95.51 15.80Q95.14 15.47 94.41 15.47L94.41 15.47L93.09 15.47ZM109.78 22L103.04 22L103.04 13.60L109.63 13.60L109.63 15.44L105.40 15.44L105.40 16.85L109.13 16.85L109.13 18.63L105.40 18.63L105.40 20.17L109.78 20.17L109.78 22ZM116.92 22L114.59 22L114.59 13.60L116.55 13.60L120.26 18.07L120.26 13.60L122.58 13.60L122.58 22L120.63 22L116.92 17.52L116.92 22ZM129.94 22L127.74 22L127.74 13.60L129.70 13.60L132.65 18.45L135.54 13.60L137.49 13.60L137.51 22L135.33 22L135.31 17.55L133.15 21.17L132.09 21.17L129.94 17.67L129.94 22ZM145.05 22L142.67 22L142.67 13.60L146.52 13.60Q147.65 13.60 148.49 13.98Q149.34 14.35 149.79 15.06Q150.25 15.76 150.25 16.71L150.25 16.71Q150.25 17.66 149.79 18.35Q149.34 19.05 148.49 19.42Q147.65 19.80 146.52 19.80L146.52 19.80L145.05 19.80L145.05 22ZM145.05 15.47L145.05 17.93L146.37 17.93Q147.10 17.93 147.48 17.61Q147.85 17.29 147.85 16.71L147.85 16.71Q147.85 16.12 147.48 15.80Q147.10 15.47 146.37 15.47L146.37 15.47L145.05 15.47Z" fill="#FFFFFF" x="75.89"/></svg>