<svg xmlns="http://www.w3.org/2000/svg" width="77.19" height="35" viewBox="0 0 77.19 35"><rect class="svg__rect" x="0" y="0" width="46.010000000000005" height="35" fill="#EA4560"/><rect class="svg__rect" x="44.010000000000005" y="0" width="33.18" height="35" fill="#C13B3A"/><path class="svg__text" d="M15.31 22L13.59 22L16.23 17.70L13.65 13.47L15.36 13.47L17.15 16.55L18.95 13.47L20.66 13.47L18.08 17.70L20.72 22L18.99 22L17.15 18.87L15.31 22ZM27.10 22L24.04 13.47L25.66 13.47L27.81 20.14L29.97 13.47L31.60 13.47L28.53 22L27.10 22Z" fill="#FFFFFF"/><path class="svg__text" d="M57.77 18.03L57.77 18.03Q57.77 16.59 58.33 15.55Q58.88 14.51 59.89 13.97Q60.90 13.43 62.23 13.43L62.23 13.43Q62.95 13.43 63.60 13.59Q64.25 13.74 64.70 14.04L64.70 14.04L63.84 15.75Q63.23 15.31 62.29 15.31L62.29 15.31Q61.38 15.31 60.82 15.82Q60.25 16.32 60.17 17.27L60.17 17.27Q60.89 16.65 62.07 16.65L62.07 16.65Q62.86 16.65 63.52 16.98Q64.17 17.31 64.56 17.91Q64.95 18.52 64.95 19.30L64.95 19.30Q64.95 20.15 64.52 20.80Q64.08 21.46 63.33 21.82Q62.58 22.17 61.65 22.17L61.65 22.17Q59.86 22.17 58.81 21.10Q57.77 20.03 57.77 18.03ZM60.34 19.42L60.34 19.42Q60.34 19.89 60.65 20.18Q60.97 20.48 61.51 20.48L61.51 20.48Q62.02 20.48 62.33 20.19Q62.65 19.90 62.65 19.41L62.65 19.41Q62.65 18.93 62.33 18.64Q62.02 18.35 61.50 18.35L61.50 18.35Q60.99 18.35 60.66 18.65Q60.34 18.94 60.34 19.42Z" fill="#FFFFFF" x="57.010000000000005"/></svg>